<svg width="3775" height="3312" viewBox="0 0 3775 3312" fill="none" xmlns="http://www.w3.org/2000/svg">
<path d="M707.509 447.765L2058.97 178.78C2175.65 155.556 2296.62 185.479 2389.02 260.424L3499.5 1161.11C3621.13 1259.77 3674 1420.33 3634.78 1571.95L3378.72 2561.79C3340.25 2710.49 3220.02 2824.04 3069.36 2853.95L1676.02 3130.59C1559.51 3153.72 1438.74 3123.87 1346.42 3049.13L272.79 2179.88C151.493 2081.67 98.3919 1921.88 136.779 1770.61L397.878 741.684C435.807 592.219 556.272 477.865 707.509 447.765Z" fill="#8BB0C9"/>
<path d="M663.1 521.023L1992.51 158.42C2107.29 127.113 2230.05 148.525 2327.45 216.841L3498.05 1037.87C3626.27 1127.8 3690.21 1284.28 3661.66 1438.27L3475.27 2443.56C3447.27 2594.59 3335.26 2716.24 3187.05 2756.59L1816.4 3129.75C1701.78 3160.96 1579.23 3139.6 1481.92 3071.48L350.268 2279.24C222.416 2189.74 158.298 2034.04 186.039 1880.46L374.727 835.826C402.136 684.079 514.332 561.601 663.1 521.023Z" fill="#175A87"/>
</svg>
