<svg width="878" height="620" viewBox="0 0 878 620" fill="none" xmlns="http://www.w3.org/2000/svg">
<circle cx="452" cy="310" r="310" fill="white"/>
<path d="M195.052 342.63C190.672 342.63 186.712 341.88 183.172 340.38C179.692 338.88 176.932 336.72 174.892 333.9C172.852 331.08 171.802 327.75 171.742 323.91H185.242C185.422 326.49 186.322 328.53 187.942 330.03C189.622 331.53 191.902 332.28 194.782 332.28C197.722 332.28 200.032 331.59 201.712 330.21C203.392 328.77 204.232 326.91 204.232 324.63C204.232 322.77 203.662 321.24 202.522 320.04C201.382 318.84 199.942 317.91 198.202 317.25C196.522 316.53 194.182 315.75 191.182 314.91C187.102 313.71 183.772 312.54 181.192 311.4C178.672 310.2 176.482 308.43 174.622 306.09C172.822 303.69 171.922 300.51 171.922 296.55C171.922 292.83 172.852 289.59 174.712 286.83C176.572 284.07 179.182 281.97 182.542 280.53C185.902 279.03 189.742 278.28 194.062 278.28C200.542 278.28 205.792 279.87 209.812 283.05C213.892 286.17 216.142 290.55 216.562 296.19H202.702C202.582 294.03 201.652 292.26 199.912 290.88C198.232 289.44 195.982 288.72 193.162 288.72C190.702 288.72 188.722 289.35 187.222 290.61C185.782 291.87 185.062 293.7 185.062 296.1C185.062 297.78 185.602 299.19 186.682 300.33C187.822 301.41 189.202 302.31 190.822 303.03C192.502 303.69 194.842 304.47 197.842 305.37C201.922 306.57 205.252 307.77 207.832 308.97C210.412 310.17 212.632 311.97 214.492 314.37C216.352 316.77 217.282 319.92 217.282 323.82C217.282 327.18 216.412 330.3 214.672 333.18C212.932 336.06 210.382 338.37 207.022 340.11C203.662 341.79 199.672 342.63 195.052 342.63ZM286.616 298.62C286.616 301.98 285.806 305.13 284.186 308.07C282.626 311.01 280.136 313.38 276.716 315.18C273.356 316.98 269.096 317.88 263.936 317.88H253.406V342H240.806V279.18H263.936C268.796 279.18 272.936 280.02 276.356 281.7C279.776 283.38 282.326 285.69 284.006 288.63C285.746 291.57 286.616 294.9 286.616 298.62ZM263.396 307.71C266.876 307.71 269.456 306.93 271.136 305.37C272.816 303.75 273.656 301.5 273.656 298.62C273.656 292.5 270.236 289.44 263.396 289.44H253.406V307.71H263.396ZM337.321 342.63C331.441 342.63 326.041 341.25 321.121 338.49C316.201 335.73 312.301 331.92 309.421 327.06C306.541 322.14 305.101 316.59 305.101 310.41C305.101 304.29 306.541 298.8 309.421 293.94C312.301 289.02 316.201 285.18 321.121 282.42C326.041 279.66 331.441 278.28 337.321 278.28C343.261 278.28 348.661 279.66 353.521 282.42C358.441 285.18 362.311 289.02 365.131 293.94C368.011 298.8 369.451 304.29 369.451 310.41C369.451 316.59 368.011 322.14 365.131 327.06C362.311 331.92 358.441 335.73 353.521 338.49C348.601 341.25 343.201 342.63 337.321 342.63ZM337.321 331.38C341.101 331.38 344.431 330.54 347.311 328.86C350.191 327.12 352.441 324.66 354.061 321.48C355.681 318.3 356.491 314.61 356.491 310.41C356.491 306.21 355.681 302.55 354.061 299.43C352.441 296.25 350.191 293.82 347.311 292.14C344.431 290.46 341.101 289.62 337.321 289.62C333.541 289.62 330.181 290.46 327.241 292.14C324.361 293.82 322.111 296.25 320.491 299.43C318.871 302.55 318.061 306.21 318.061 310.41C318.061 314.61 318.871 318.3 320.491 321.48C322.111 324.66 324.361 327.12 327.241 328.86C330.181 330.54 333.541 331.38 337.321 331.38ZM434.175 279.18V289.35H417.435V342H404.835V289.35H388.095V279.18H434.175ZM463.259 336.87H485.849V342H456.959V279.09H463.259V336.87ZM513.74 279.09V342H507.44V279.09H513.74ZM590.106 297.45C588.306 293.31 585.546 290.07 581.826 287.73C578.166 285.33 573.846 284.13 568.866 284.13C564.186 284.13 559.986 285.21 556.266 287.37C552.546 289.53 549.606 292.62 547.446 296.64C545.286 300.6 544.206 305.22 544.206 310.5C544.206 315.78 545.286 320.43 547.446 324.45C549.606 328.47 552.546 331.56 556.266 333.72C559.986 335.88 564.186 336.96 568.866 336.96C573.246 336.96 577.176 336.03 580.656 334.17C584.196 332.25 587.016 329.55 589.116 326.07C591.276 322.53 592.506 318.42 592.806 313.74H566.346V308.61H599.466V313.2C599.166 318.72 597.666 323.73 594.966 328.23C592.266 332.67 588.636 336.18 584.076 338.76C579.576 341.34 574.506 342.63 568.866 342.63C563.046 342.63 557.766 341.28 553.026 338.58C548.286 335.82 544.536 332.01 541.776 327.15C539.076 322.23 537.726 316.68 537.726 310.5C537.726 304.32 539.076 298.8 541.776 293.94C544.536 289.02 548.286 285.21 553.026 282.51C557.766 279.75 563.046 278.37 568.866 278.37C575.586 278.37 581.466 280.05 586.506 283.41C591.546 286.77 595.206 291.45 597.486 297.45H590.106ZM670.316 279.09V342H664.016V312.57H629.906V342H623.606V279.09H629.906V307.35H664.016V279.09H670.316ZM734.1 279.09V284.31H716.64V342H710.34V284.31H692.79V279.09H734.1Z" fill="#175A87"/>
<path fill-rule="evenodd" clip-rule="evenodd" d="M878 488.57C878 499.795 867.726 510 856.425 510C845.123 510 834.849 499.795 834.849 488.57V334.481H803C803 333.46 803 332.44 803 331.419L805.055 183.453C806.082 145.696 835.877 111 878 111C878 236.517 878 363.054 878 488.57Z" fill="white"/>
<path fill-rule="evenodd" clip-rule="evenodd" d="M61.217 509H46.217C35.217 509 25.217 499 25.217 488L33.217 268C-4.78299 262 0.217014 226 0.217014 198L16.217 113L28.217 112L32.217 201L45.217 111H62.217L75.217 201L79.217 112L91.217 113L107.217 198C107.217 226 112.217 262 74.217 268L82.217 488C82.217 499 72.217 509 61.217 509Z" fill="white"/>
</svg>
