<svg width="516" height="69" viewBox="0 0 516 69" fill="none" xmlns="http://www.w3.org/2000/svg">
<path d="M3.03125 65.6562V57.6875C10.0625 60.1875 17.6562 61.4375 25.8125 61.4375C37.3438 61.4375 43.1094 57.2188 43.1094 48.7812C43.1094 41.5938 38.8594 38 30.3594 38H21.7344C7.70312 38 0.6875 31.9062 0.6875 19.7188C0.6875 6.90625 9.67188 0.5 27.6406 0.5C35.4531 0.5 42.7188 1.4375 49.4375 3.3125V11.2812C42.7188 8.78125 35.4531 7.53125 27.6406 7.53125C15.4531 7.53125 9.35938 11.5938 9.35938 19.7188C9.35938 26.9062 13.4844 30.5 21.7344 30.5H30.3594C44.6406 30.5 51.7812 36.5938 51.7812 48.7812C51.7812 61.9062 43.125 68.4688 25.8125 68.4688C17.6562 68.4688 10.0625 67.5312 3.03125 65.6562ZM64.4375 68V0.96875H91.625C105.312 0.96875 112.156 6.95313 112.156 18.9219C112.156 31.9531 102.797 39.9062 84.0781 42.7812L82.2969 35.4688C96.0469 33.4375 102.922 28.0469 102.922 19.2969C102.922 11.8594 98.8906 8.14062 90.8281 8.14062H73.1094V68H64.4375ZM130.484 34.2969C130.484 52.3906 138.656 61.4375 155 61.4375C171 61.4375 179 52.3906 179 34.2969C179 16.4531 171 7.53125 155 7.53125C138.656 7.53125 130.484 16.4531 130.484 34.2969ZM121.344 34.5781C121.344 11.8594 132.562 0.5 155 0.5C177.094 0.5 188.141 11.8594 188.141 34.5781C188.141 57.1719 177.094 68.4688 155 68.4688C132.562 68.4688 121.344 57.1719 121.344 34.5781ZM247.016 0.96875V8H225.922V68H217.25V8H196.156V0.96875H247.016ZM261.828 0.96875V63.7812H300.641V68H256.906V0.96875H261.828ZM317.797 0.96875V68H312.875V0.96875H317.797ZM386.75 65.375C381.031 67.4375 375.047 68.4688 368.797 68.4688C344.828 68.4688 332.844 56.8281 332.844 33.5469C332.844 11.5156 344.562 0.5 368 0.5C374.406 0.5 380.656 1.4375 386.75 3.3125V7.53125C380.656 5.65625 374.719 4.71875 368.938 4.71875C348.156 4.71875 337.766 14.3281 337.766 33.5469C337.766 54.0156 347.859 64.25 368.047 64.25C372.172 64.25 376.766 63.5625 381.828 62.1875V37.5312H386.75V65.375ZM401.094 68V0.96875H406.016V31.9062H451.719V0.96875H456.641V68H451.719V36.125H406.016V68H401.094ZM515.047 0.96875V5.1875H492.078V68H487.156V5.1875H464.656V0.96875H515.047Z" fill="black"/>
</svg>
